<mxfile host="65bd71144e">
    <diagram id="DnCBduXxhV08tWmnlPtJ" name="Page-1">
        <mxGraphModel dx="986" dy="427" grid="1" gridSize="10" guides="1" tooltips="1" connect="1" arrows="1" fold="1" page="1" pageScale="1" pageWidth="827" pageHeight="1169" math="0" shadow="0">
            <root>
                <mxCell id="0"/>
                <mxCell id="1" parent="0"/>
                <mxCell id="2" value="" style="rounded=0;whiteSpace=wrap;html=1;" vertex="1" parent="1">
                    <mxGeometry x="160" y="90" width="380" height="40" as="geometry"/>
                </mxCell>
                <mxCell id="3" value="Title" style="text;html=1;strokeColor=none;fillColor=none;align=center;verticalAlign=middle;whiteSpace=wrap;rounded=0;" vertex="1" parent="1">
                    <mxGeometry x="60" y="95" width="60" height="30" as="geometry"/>
                </mxCell>
                <mxCell id="4" value="" style="whiteSpace=wrap;html=1;aspect=fixed;" vertex="1" parent="1">
                    <mxGeometry x="160" y="160" width="380" height="380" as="geometry"/>
                </mxCell>
                <mxCell id="5" value="Content" style="text;html=1;strokeColor=none;fillColor=none;align=center;verticalAlign=middle;whiteSpace=wrap;rounded=0;" vertex="1" parent="1">
                    <mxGeometry x="70" y="160" width="60" height="30" as="geometry"/>
                </mxCell>
                <mxCell id="8" value="插入收件人变量" style="rounded=0;whiteSpace=wrap;html=1;" vertex="1" parent="1">
                    <mxGeometry x="580" y="190" width="110" height="30" as="geometry"/>
                </mxCell>
                <mxCell id="9" value="插入时间变量" style="rounded=0;whiteSpace=wrap;html=1;" vertex="1" parent="1">
                    <mxGeometry x="580" y="125" width="110" height="30" as="geometry"/>
                </mxCell>
                <mxCell id="10" value="插入发件人变量" style="rounded=0;whiteSpace=wrap;html=1;" vertex="1" parent="1">
                    <mxGeometry x="710" y="125" width="110" height="30" as="geometry"/>
                </mxCell>
                <mxCell id="11" value="提交" style="rounded=0;whiteSpace=wrap;html=1;" vertex="1" parent="1">
                    <mxGeometry x="414" y="585" width="120" height="35" as="geometry"/>
                </mxCell>
            </root>
        </mxGraphModel>
    </diagram>
</mxfile>